<svg xmlns="http://www.w3.org/2000/svg" viewBox="0 0 400 400"><defs><style>.a{fill:none;}.b{fill:#808285;}.c{fill:#d1d3d4;}.d{fill:#be1e2d;}.e{fill:#e6e7e8;}.f{fill:#fff;}.g{fill:#939598;}.h{fill:#a7a9ac;}.i{fill:#bcbec0;}</style></defs><rect class="a" width="400" height="400"/><path class="b" d="M85.44,350a6.31,6.31,0,0,0,0,12.61h24.12a9.9,9.9,0,1,1,0,19.8H77.73l-1.08-3.6h32.84a6.3,6.3,0,1,0,0-12.6h-24a9.91,9.91,0,0,1,0-19.81h31.18l1.08,3.6Z"/><path class="b" d="M211.65,378.77a7.22,7.22,0,0,0,7.21-7.2V346.36h3.6v25.21a10.8,10.8,0,0,1-10.81,10.8h-21.6a10.79,10.79,0,0,1-10.8-10.8V346.36h3.6v25.21a7.22,7.22,0,0,0,7.2,7.2Z"/><path class="b" d="M287.25,371.57a7.22,7.22,0,0,0,7.2,7.2h10.44l-1.08,3.6h-9.36a10.79,10.79,0,0,1-10.8-10.8V332h3.6Z"/><polygon class="c" points="348.96 65.27 200.06 29.42 51.04 64.82 200.78 115.89 348.96 65.27"/><path class="d" d="M347.05,65.91,345,65.45c-24.63-5.36-49-10.48-73.15-15.87s-48.12-11.2-72.45-17.23h1.4L51.51,66.79l.19-3.89,149.41,52h-.65l74-24.64Q310.65,78.26,347.05,65.91ZM351,64.57l-2,.7Q312.17,77.9,275.29,90.86l-74.18,26a1,1,0,0,1-.64,0h0L50.39,66.74a2,2,0,0,1,.15-3.88h0l148.8-36.36a2.8,2.8,0,0,1,1.35,0h.05c25.3,5.91,50.93,12.05,76.44,18.62C302.07,51.49,326.64,58.13,351,64.57Z"/><polygon class="e" points="200.74 328.58 338.35 247.29 348.96 65.27 200.78 115.89 200.74 328.58"/><path class="d" d="M200.74,328.58l34.68-21.28,34.11-21.15,33.73-20.85q16.8-10.35,33.61-20.52l-1.43,2.34,2.18-45.53L340,156.07l1.19-22.77,1.27-22.75L345,65l5.25,4L313.19,81.66,276.12,94.24q-18.53,6.32-37.1,12.49L201.9,119.15l2.33-3.26c-.1,17.47-.39,35-.62,52.47s-.59,35.09-.92,52.76l-1,53.35Zm0,0-.88-52.23-1-53c-.33-17.78-.7-35.64-.91-53.58s-.5-35.9-.59-53.88a3.41,3.41,0,0,1,2.29-3.24l0,0,37-12.89q18.48-6.46,37-12.82l37-12.73,37-12.68h0a4,4,0,0,1,5.24,4L350.17,111l-1.38,22.75-1.46,22.74L344.39,202l-3.12,45.48v.06a2.89,2.89,0,0,1-1.42,2.29q-17.56,10.17-35.2,20.12c-11.73,6.64-23.43,13.29-35.08,19.79l-34.69,19.5Z"/><polygon class="f" points="61.68 246.77 200.74 328.58 200.78 115.89 51.04 64.82 61.68 246.77"/><path class="d" d="M62,246.56C74.22,253,86.15,259.49,98,266l17.71,9.77,17.57,9.81,17.43,9.88q8.73,4.92,17.35,9.94l17.28,10,17.18,10.14-5.35,3.06c.16-17.72.57-35.45,1.11-53.17s1-35.45,1.16-53.17.12-35.45-.14-53.18-.71-35.45-1.13-53.17l1.76,2.46q-18.88-5.91-37.7-12L124.67,94,87.13,81.55c-12.52-4.14-25-8.45-37.47-12.68l5.66-4.3c.76,15,1.56,30,2.23,45s1.31,30.1,1.85,45.23l.8,22.74q.39,11.38.71,22.84c.24,7.63.41,15.31.6,23S61.9,238.8,62,246.56Zm-.68.42c-.76-7.4-1.45-14.86-2.14-22.34s-1.42-15-2.06-22.5-1.33-15.07-2-22.64l-1.87-22.75Q51.48,134,49.85,111c-1.1-15.28-2.07-30.61-3.08-45.93a4.26,4.26,0,0,1,4-4.54,4.31,4.31,0,0,1,1.65.22h0c12.46,4.29,25,8.49,37.4,12.86l37.33,13.09L164.45,99.9q18.63,6.64,37.17,13.53l.12,0a2.52,2.52,0,0,1,1.64,2.41c-.43,17.73-.89,35.45-1.15,53.17s-.3,35.45-.17,53.18.62,35.45,1.15,53.17.93,35.45,1.08,53.17a3.54,3.54,0,0,1-5.3,3.09l-.05,0-17.58-10.3-17.48-10.46q-8.74-5.22-17.42-10.51L129.13,289.8l-17.2-10.65L94.87,268.47C83.57,261.33,72.32,254.19,61.34,247Z"/><polygon class="c" points="320.23 229.49 227.89 280.28 229.51 143.06 326.45 105.64 320.23 229.49"/><path class="g" d="M320.23,229.49l-22.5,13.17L275,255.86,252,269.05q-11.5,6.6-23.1,13.15L225.7,284v-3.77l0-34.31.16-34.31c0-11.44.19-22.88.28-34.31l.36-34.31,0-2,1.89-.72L277,121.7c16.21-6.1,32.39-12.28,48.62-18.32l3.52-1.3-.23,3.68-2,31.2L324.8,168l-2.22,30.87Zm0,0,.76-31.33.89-31.06,1-30.86L324,105.52l3.28,2.37c-16.08,6.44-32.21,12.73-48.32,19.1l-48.41,18.85,1.91-2.75L232,177.4c-.18,11.43-.29,22.87-.52,34.3L230.86,246l-.78,34.3-3.24-1.94q11.49-6.17,23.07-12.25l23.23-12.21,23.42-12.2Z"/><polygon class="e" points="81.34 229.49 173.62 280.18 172.06 143.06 75.17 105.7 81.34 229.49"/><path class="h" d="M81.34,229.49,105,241.69l23.41,12.17,23.21,12.19c7.72,4.06,15.41,8.11,23.06,12.22l-3.24,1.94-.77-34.28L170,211.65c-.23-11.42-.33-22.85-.51-34.28l-.44-34.28,1.91,2.75L122.59,127C106.5,120.67,90.37,114.39,74.3,108l3.29-2.38,1.14,30.71,1,30.85.87,31Zm0,0L79,198.91l-2.21-30.86L74.7,137l-1.94-31.19-.23-3.68L76,103.45c16.23,6,32.39,12.19,48.59,18.28l48.5,18.54L175,141l0,2,.34,34.28c.09,11.43.24,22.86.27,34.29l.15,34.28v38.05l-3.24-1.82Q161,275.58,149.49,269l-22.93-13.16-22.73-13.18Z"/><polygon class="i" points="100.48 64.23 199.27 39.34 299.58 64.67 200.78 96.14 100.48 64.23"/><path class="g" d="M100.18,64.22c7.59-2.12,15.39-4.39,23.38-6.75L148,50.26c4.13-1.22,8.33-2.41,12.55-3.57s8.41-2.37,12.68-3.44c8.48-2.25,17.07-4.19,25.53-6l.61-.13.45.13,24.88,7.12q6.23,1.77,12.47,3.44c4.15,1.15,8.33,2.22,12.5,3.3s8.36,2.13,12.54,3.16,8.38,2.05,12.57,3c8.39,2,16.81,3.89,25.22,5.78l5.58,1.25-5.48,1.9-24.49,8.54C267.42,77.59,259.22,80.32,251,83l-24.61,8.14-12.31,4-12.34,4-1,.3-1-.3c-8.62-2.68-17.21-5.62-25.79-8.52-4.3-1.46-8.54-3-12.79-4.49s-8.46-3-12.63-4.56l-24.62-9-12-4.3Zm.6,0L114,68.11l13.1,3.68,25.52,6.95c4.2,1.13,8.34,2.27,12.45,3.42s8.23,2.29,12.29,3.49c8.13,2.42,16.26,4.79,24.35,7.43h-1.94l12.36-3.9,12.39-3.82,24.78-7.6c8.27-2.51,16.53-5,24.83-7.46l24.91-7.2.1,3.16c-8.3-2.34-16.61-4.67-24.94-6.89-4.16-1.12-8.33-2.23-12.5-3.29s-8.35-2.16-12.54-3.17-8.37-2.08-12.57-3-8.4-2-12.61-2.89l-25.28-5.55h1.06c-8,2.33-15.88,4.54-23.86,6.44-4,1-8,1.87-12,2.79s-8,1.79-12.15,2.65l-25,5.23C118.32,60.33,109.65,62.2,100.78,64.24Z"/><polygon class="i" points="240.09 228.25 286.21 205.43 288.48 141.82 241.21 161.38 240.09 228.25"/><path class="h" d="M240.18,228.13l45.73-23.31-.38.59,1.76-63.63,1.64,1.14-23.54,10-11.78,5c-3.92,1.66-7.87,3.28-11.81,4.89l.94-1.39c-.1,5.46-.24,10.91-.44,16.38s-.41,11-.64,16.48Zm-.17.25-.37-33c0-5.62-.1-11.27-.08-17s0-11.37.12-17v-1l.93-.39c3.93-1.66,7.87-3.3,11.82-4.89l11.85-4.8L288,140.72l1.73-.69-.08,1.83-2.78,63.6,0,.41-.36.17Z"/><polygon class="c" points="161.47 228.25 113.83 204.71 111.58 141.82 160.4 162.04 161.47 228.25"/><path class="i" d="M161.55,228.38l-48-23-.36-.18,0-.42-2.75-62.87-.08-1.83,1.72.69,24.51,9.88,12.24,5c4.08,1.64,8.14,3.36,12.2,5.06l.93.38,0,1c.08,5.63.1,11.27.1,16.89s-.06,11.22-.1,16.79Zm-.16-.25-1.46-33.52c-.21-5.47-.46-10.91-.63-16.32s-.34-10.82-.43-16.23l.94,1.39c-4.07-1.67-8.15-3.32-12.21-5l-12.16-5.14-24.32-10.34,1.64-1.14,1.76,62.9-.38-.6Z"/><polygon class="h" points="200.78 60.33 251.2 74.27 200.78 89.96 150.37 74.28 200.78 60.33"/><path class="b" d="M200.78,60.18c2.11.43,4.21.9,6.32,1.38s4.23.94,6.34,1.46q6.34,1.5,12.71,3.13c4.24,1.07,8.48,2.19,12.71,3.33s8.47,2.33,12.67,3.58l4.2,1.25-4.16,1.15L238.84,79c-4.24,1.16-8.49,2.33-12.7,3.59s-8.42,2.57-12.6,3.94S205.2,89.34,201,90.75l-.22.07-.27-.07c-4.24-1.19-8.49-2.33-12.71-3.57s-8.46-2.44-12.68-3.71L162.5,79.7c-4.21-1.26-8.41-2.58-12.61-3.89l-5.29-1.65,5.34-1.42c4.25-1.12,8.49-2.28,12.74-3.37s8.49-2.18,12.74-3.23l12.71-3.08C192.36,62.06,196.58,61.09,200.78,60.18Zm0,.3q-6.28,2.12-12.55,4.09l-12.5,3.9c-4.16,1.28-8.31,2.52-12.47,3.75s-8.31,2.4-12.47,3.6l.05-3.06c4.2,1.3,8.41,2.59,12.59,3.95L176,80.77c4.19,1.35,8.37,2.74,12.54,4.13s8.33,2.85,12.5,4.28h-.49c4.23-1.21,8.48-2.36,12.7-3.63s8.42-2.55,12.61-3.9,8.34-2.81,12.49-4.26l12.49-4.32,0,2.4q-6.29-1.59-12.53-3.39c-4.17-1.18-8.33-2.38-12.49-3.63s-8.33-2.52-12.51-3.84c-2.08-.65-4.17-1.35-6.26-2S202.88,61.21,200.78,60.48Z"/></svg>